<svg width="54" height="64" viewBox="0 0 54 64" fill="none" xmlns="http://www.w3.org/2000/svg">
<path d="M53.0103 38.1163C53.0103 38.2633 53.0016 38.4104 53.0016 38.5496C52.993 38.6447 52.993 38.7312 52.9843 38.8272C52.967 39.2164 52.9324 39.6064 52.8978 39.9965V40.083C52.8719 40.2568 52.8546 40.4384 52.8373 40.6122C52.8286 40.6727 52.8286 40.7246 52.82 40.7852C52.7854 41.0455 52.7508 41.305 52.7075 41.5653C52.7081 41.57 52.7077 41.5748 52.7062 41.5793C52.7047 41.5837 52.7022 41.5878 52.6989 41.5912C52.6383 42.0245 52.5597 42.4491 52.4732 42.8738C52.4699 42.8771 52.4674 42.8812 52.4659 42.8857C52.4644 42.8903 52.464 42.895 52.4646 42.8997C52.43 43.09 52.386 43.2724 52.3435 43.4627C52.2224 43.9739 52.0918 44.485 51.9447 44.9875C51.8409 45.3343 51.7371 45.6811 51.6153 46.0278C51.5367 45.7919 51.4581 45.556 51.3731 45.3343C51.3125 45.1699 51.2513 45.0056 51.1906 44.8491V44.8404C51.1816 44.8065 51.167 44.7744 51.1474 44.7453C51.1301 44.7107 51.1215 44.6761 51.1041 44.6415C51.0176 44.4056 50.9226 44.1823 50.8179 43.9566C50.7827 43.8619 50.7422 43.7693 50.6968 43.679V43.6703C50.6859 43.6424 50.6713 43.6159 50.6535 43.5917L50.6449 43.5831C50.6426 43.5487 50.6307 43.5157 50.6103 43.4879C50.5149 43.2719 50.4101 43.0554 50.2958 42.8384C50.2733 42.7842 50.247 42.7316 50.2171 42.6811C50.1975 42.6361 50.1743 42.5927 50.148 42.5513C50.096 42.4303 50.0355 42.3154 49.975 42.2046L49.739 41.7886C49.7044 41.7194 49.6698 41.6502 49.6266 41.581C49.6353 41.5723 49.6266 41.5723 49.6266 41.5723C49.592 41.5031 49.548 41.4332 49.5055 41.364C49.3577 41.0872 49.1909 40.8182 49.0195 40.5493C48.8203 40.2206 48.6125 39.9 48.3959 39.5876C48.3556 39.5372 48.3181 39.4848 48.2835 39.4303C48.0837 39.1441 47.8761 38.8586 47.6677 38.581C47.4861 38.338 47.295 38.1045 47.1047 37.8733C47.0096 37.7522 46.9144 37.6311 46.8098 37.5179C46.7493 37.4392 46.6802 37.3606 46.611 37.282C46.4536 37.0917 46.2815 36.9006 46.1085 36.7103C46.0791 36.6736 46.0473 36.6389 46.0132 36.6065C45.7703 36.3376 45.5187 36.0773 45.2591 35.8201L26.5202 17.0679L7.76881 35.817C7.39608 36.1889 7.04064 36.5703 6.69386 36.9517C6.49491 37.1774 6.29596 37.4109 6.10488 37.6453C6.03568 37.7239 5.97513 37.8025 5.90593 37.8812C5.67002 38.1674 5.4467 38.4623 5.22966 38.7564C5.16912 38.8429 5.10857 38.9215 5.04802 39.008C4.93478 39.1551 4.83098 39.3116 4.71853 39.4673C4.63203 39.5884 4.55418 39.7095 4.47555 39.8313C4.43231 39.8869 4.39189 39.9447 4.35445 40.0043C4.12955 40.3511 3.90387 40.7066 3.69627 41.062C3.59168 41.235 3.49653 41.3993 3.40138 41.5731C3.38637 41.6078 3.36594 41.64 3.34084 41.6683C3.24569 41.8413 3.1584 42.0237 3.06325 42.1967C2.94215 42.4224 2.82734 42.6473 2.71647 42.873C2.69402 42.911 2.67657 42.9516 2.66457 42.9941C2.63223 43.0529 2.60335 43.1135 2.57807 43.1757C2.55719 43.2087 2.5398 43.2437 2.52617 43.2803C2.49157 43.3495 2.45697 43.4101 2.43102 43.4706C2.35238 43.635 2.28397 43.7914 2.22264 43.9558C2.15326 44.0934 2.0926 44.2352 2.04099 44.3804C2.01504 44.4323 1.99774 44.4756 1.97179 44.5275C1.97179 44.5361 1.96314 44.5448 1.96314 44.5534C1.7634 45.048 1.58175 45.5332 1.42606 46.027C1.30417 45.6803 1.20037 45.3335 1.09657 44.9867C1.02737 44.7508 0.957387 44.5149 0.896837 44.2853C0.836288 44.0557 0.767087 43.8001 0.715188 43.5485C0.645988 43.2717 0.585175 42.9943 0.532751 42.7165C0.472202 42.4397 0.420305 42.1621 0.375482 41.8759C0.33066 41.5896 0.280332 41.3128 0.245733 41.0266C0.211133 40.7907 0.185182 40.5501 0.159233 40.3189C0.150583 40.2324 0.141932 40.1537 0.133282 40.0672C0.107332 39.8251 0.0892467 39.5734 0.071947 39.3312V39.3226C0.0459972 39.0623 0.037347 38.8107 0.0286971 38.5512C0.0113972 38.1957 0.00274658 37.8489 0.00274658 37.4935C0.00274658 36.991 0.0200475 36.4799 0.0554335 35.9774C0.40697 29.4764 3.15435 23.3362 7.76724 18.742L26.4928 0.0267334L26.5187 0L45.2623 18.7436C46.6382 20.1137 47.856 21.6338 48.893 23.2754C48.893 23.284 48.9015 23.2927 48.9015 23.3013C51.3268 27.1034 52.7296 31.4672 52.9741 35.9703C53.0189 36.6867 53.0362 37.3968 53.0103 38.1163Z" fill="url(#paint0_linear_13_384)"/>
<path d="M44.8912 56.591C40.5541 60.7691 34.9222 63.344 28.9249 63.8906C22.9275 64.4373 16.9229 62.9232 11.902 59.598C11.8674 59.5799 11.8414 59.5626 11.8233 59.554C10.5091 58.6792 9.27654 57.6875 8.14081 56.591L8.85954 55.8715L26.5195 38.2201L44.2755 55.9752V55.9839L44.336 56.0452L44.8912 56.591Z" fill="url(#paint1_linear_13_384)"/>
<path d="M51.6161 46.0278C50.7394 48.6347 49.4588 51.0879 47.8211 53.2976C47.6638 53.506 47.5066 53.7136 47.3359 53.922C47.1787 54.1209 47.0151 54.3207 46.85 54.5196C46.5126 54.9128 46.1745 55.2997 45.8104 55.6811C45.6374 55.8714 45.455 56.053 45.2647 56.2441C45.1519 56.3684 45.0302 56.4843 44.9006 56.5909H44.8919L44.3415 56.0452L44.2809 55.9838V55.9752L26.525 38.22L8.86105 55.869L8.14232 56.5885C8.01202 56.4796 7.88754 56.3639 7.76958 56.2417C4.89086 53.3749 2.71927 49.877 1.42682 46.0254C1.58409 45.5316 1.76417 45.0464 1.9639 44.5518C1.9639 44.5431 1.97255 44.5345 1.97255 44.5258C1.9985 44.4739 2.01581 44.4307 2.04176 44.3788C2.09337 44.2336 2.15403 44.0917 2.2234 43.9541C2.36232 43.6333 2.50963 43.3128 2.66533 42.9924C2.78722 42.7235 2.92562 42.4553 3.06401 42.195C3.26375 41.8137 3.47135 41.4323 3.69703 41.0603C3.90463 40.7049 4.13031 40.3526 4.35521 40.0027C4.37251 39.9854 4.38116 39.9594 4.39846 39.9421C4.60685 39.6213 4.83175 39.3005 5.06609 38.9804C5.11799 38.9018 5.16989 38.8326 5.23044 38.7547C5.46634 38.4402 5.70696 38.1312 5.94995 37.8276L5.96725 37.8103C6.20053 37.5241 6.44299 37.2382 6.69463 36.9524C7.04142 36.571 7.39685 36.1896 7.76958 35.8177L26.5211 17.0654L45.2647 35.8169C47.4821 38.0318 49.2894 40.6223 50.6025 43.4682C50.6284 43.5043 50.6461 43.5456 50.6544 43.5893C50.6721 43.6136 50.6866 43.6399 50.6976 43.6679V43.6765C50.743 43.7668 50.7835 43.8594 50.8187 43.9541C50.9233 44.1798 51.0184 44.4047 51.1049 44.639C51.1389 44.703 51.1678 44.7695 51.1914 44.838V44.8466C51.252 45.0039 51.3133 45.1675 51.3739 45.3318C51.4604 45.5599 51.5382 45.7934 51.6161 46.0278Z" fill="url(#paint2_linear_13_384)"/>
<g style="mix-blend-mode:multiply" opacity="0.06">
<g style="mix-blend-mode:multiply" opacity="0.06">
<path d="M26.5204 38.2209L8.13932 56.5941C8.01271 56.4856 7.88532 56.3582 7.76738 56.241C6.846 55.3238 5.99461 54.3389 5.22037 53.2946L26.5204 38.2209Z" fill="black"/>
</g>
</g>
<g style="mix-blend-mode:multiply" opacity="0.06">
<g style="mix-blend-mode:multiply" opacity="0.06">
<path d="M26.5206 17.0679L7.76915 35.817C7.39641 36.189 7.04098 36.5704 6.6942 36.9518C6.49525 37.1877 6.2963 37.411 6.10522 37.6453C6.03602 37.724 5.97547 37.8026 5.90627 37.8812C5.67036 38.1675 5.44704 38.4624 5.23 38.7565C5.16945 38.8429 5.1089 38.9216 5.04835 39.0081C4.93512 39.1551 4.82267 39.3116 4.71887 39.4673C4.63237 39.5884 4.55452 39.7095 4.47588 39.8314C4.43264 39.887 4.39222 39.9447 4.35479 40.0044C4.12989 40.3512 3.9042 40.7066 3.6966 41.062C3.59202 41.2264 3.49687 41.3994 3.40172 41.5732C3.38671 41.6079 3.36627 41.64 3.34117 41.6683C3.24602 41.8413 3.15087 42.0238 3.06359 42.1968C2.94249 42.4224 2.82768 42.6473 2.7168 42.873C2.69435 42.911 2.6769 42.9517 2.6649 42.9941C2.63257 43.0529 2.60369 43.1136 2.5784 43.1758C2.55753 43.2087 2.54013 43.2438 2.5265 43.2804C2.42271 43.5053 2.31891 43.7309 2.22297 43.9558C2.1536 44.0935 2.09293 44.2352 2.04132 44.3805C1.81564 44.9262 1.60804 45.4719 1.42639 46.0271C1.30451 45.6803 1.20071 45.3335 1.09691 44.9868C1.02771 44.7509 0.957722 44.5149 0.897173 44.2853C0.836623 44.0557 0.767423 43.8001 0.715524 43.5485C0.646324 43.2717 0.58551 42.9944 0.533087 42.7165C0.472538 42.4397 0.42064 42.1622 0.375818 41.8759C0.330996 41.5897 0.280668 41.3129 0.246068 41.0267C0.211469 40.7908 0.185518 40.5501 0.159568 40.3189C0.150918 40.2324 0.142268 40.1538 0.133618 40.0673C0.107668 39.8251 0.0895824 39.5735 0.0722827 39.3313V39.3226C0.0463329 39.0623 0.0376827 38.8107 0.0290328 38.5512C0.0117329 38.1958 0.00308228 37.849 0.00308228 37.4936C0.00308228 36.9911 0.0203832 36.4799 0.0557692 35.9775L0.341216 35.7699L22.7587 19.7557L26.5206 17.0679Z" fill="black"/>
</g>
</g>
<g style="mix-blend-mode:multiply" opacity="0.06">
<g style="mix-blend-mode:multiply" opacity="0.06">
<path d="M47.8204 53.2977C47.6631 53.5061 47.5058 53.7137 47.3352 53.9221C47.1779 54.121 47.0144 54.3208 46.8492 54.5197C46.5119 54.9129 46.1737 55.2998 45.8097 55.6812C45.6367 55.8715 45.4542 56.0618 45.2726 56.2442H45.2639C45.1512 56.3685 45.0295 56.4844 44.8999 56.591H44.8912L44.2849 55.9753C44.2849 55.9839 44.2763 55.9753 44.2763 55.9753C44.2646 55.9559 44.2499 55.9385 44.233 55.9234L26.5203 38.2201L30.099 40.7506L47.1182 52.8023L47.8204 53.2977Z" fill="black"/>
</g>
</g>
<g style="mix-blend-mode:multiply" opacity="0.06">
<g style="mix-blend-mode:multiply" opacity="0.06">
<path d="M52.3396 43.4652C52.2208 43.9755 52.0934 44.4874 51.9464 44.9875C51.8426 45.3343 51.7388 45.6811 51.6169 46.0279C51.5383 45.792 51.4596 45.5561 51.3747 45.3343C51.3142 45.17 51.2528 45.0056 51.1836 44.8491C51.1613 44.7785 51.135 44.7093 51.105 44.6415C51.0185 44.4056 50.9233 44.1823 50.8188 43.9566C50.7835 43.862 50.7431 43.7692 50.6977 43.679C50.6886 43.6478 50.6739 43.6186 50.6544 43.5925C50.6462 43.5489 50.6285 43.5075 50.6025 43.4714C49.2875 40.6288 47.4837 38.0392 45.2734 35.8202H45.2647L26.5203 17.0679L30.2359 19.7282L52.393 35.5513L52.9734 35.9672L52.982 35.9759C53.0166 36.4784 53.0339 36.9895 53.0339 37.492C53.0339 37.7004 53.0166 37.9088 53.0119 38.1164C53.0119 38.2618 53.0017 38.4065 52.9962 38.552C52.9757 39.0513 52.9427 39.5491 52.894 40.0461C52.8704 40.293 52.8444 40.5391 52.8153 40.7853C52.7823 41.0455 52.7493 41.305 52.7092 41.5637C52.64 42.0088 52.559 42.4526 52.4662 42.895C52.4276 43.0861 52.3836 43.2756 52.3396 43.4652Z" fill="black"/>
</g>
</g>
<g style="mix-blend-mode:multiply" opacity="0.14">
<g style="mix-blend-mode:multiply" opacity="0.14">
<path d="M44.3415 56.0413L26.521 38.2208L8.86417 55.8691C10.2151 54.2735 11.629 52.7511 13.0161 51.1918C14.4206 49.66 15.8344 48.125 17.2672 46.6238C18.6897 45.1007 20.1492 43.6145 21.5921 42.1188L25.9792 37.6775L26.5226 37.127L27.0668 37.6775L31.49 42.1597C32.9495 43.6734 34.4176 45.1691 35.859 46.7009C37.3004 48.2327 38.7324 49.7677 40.1557 51.3153C41.5405 52.8872 42.9756 54.4277 44.3415 56.0413Z" fill="black"/>
</g>
</g>
<g style="mix-blend-mode:multiply" opacity="0.14">
<g style="mix-blend-mode:multiply" opacity="0.14">
<path d="M50.6947 43.6687C49.3756 40.7454 47.5372 38.0857 45.2688 35.8185L26.5205 17.0647L7.76662 35.8169C5.2735 38.3047 3.30421 41.2667 1.9751 44.5283C3.00942 41.59 4.57631 38.8675 6.5973 36.4971C7.10529 35.8987 7.6581 35.3373 8.18421 34.775L9.77029 33.0891L12.9881 29.7439C17.2666 25.2939 21.6168 20.8974 25.9771 16.5197L26.5205 15.9756L27.0646 16.5197L33.4184 22.9373C35.5125 25.0943 37.6333 27.2339 39.7093 29.4184L42.8366 32.6723L44.3865 34.3126C44.8937 34.8631 45.4284 35.4096 45.9364 35.964C47.9707 38.2269 49.5823 40.8365 50.6947 43.6687Z" fill="black"/>
</g>
</g>
<g style="mix-blend-mode:screen" opacity="0.3">
<g style="mix-blend-mode:screen" opacity="0.3">
<path d="M44.3414 56.0413C42.7278 54.6723 41.1873 53.2403 39.6232 51.854C38.0731 50.4307 36.5352 48.9984 35.0097 47.5573C33.4771 46.1159 31.9822 44.6478 30.4685 43.1883L26.5249 39.2998L22.6277 43.1529C21.1226 44.5943 19.6458 46.053 18.1226 47.4677C16.6089 48.9083 15.0857 50.3135 13.5453 51.7274C11.9859 53.1051 10.4635 54.5189 8.86801 55.8699L26.5249 38.2217L44.3414 56.0413Z" fill="white"/>
</g>
</g>
<g style="mix-blend-mode:screen" opacity="0.3">
<g style="mix-blend-mode:screen" opacity="0.3">
<path d="M50.6946 43.6688C49.3333 41.0034 47.5453 38.5785 45.4016 36.4901C43.2258 34.4228 41.0232 32.3562 38.8662 30.263C36.6912 28.1775 34.5515 26.0662 32.3945 23.9635L26.5204 18.1444C22.3265 22.3326 18.0995 26.484 13.8396 30.5987L10.4984 33.8157C9.38333 34.8765 8.22345 35.9279 7.16263 37.006C5.0244 39.2051 3.27175 41.7487 1.97818 44.5298C3.30618 41.268 5.27439 38.3054 7.76656 35.817L26.5204 17.0632L45.2656 35.817C47.5353 38.0843 49.3748 40.7446 50.6946 43.6688Z" fill="white"/>
</g>
</g>
<g style="mix-blend-mode:screen" opacity="0.5">
<g style="mix-blend-mode:screen" opacity="0.5">
<path d="M26.4947 0.0236206C26.2698 0.300419 24.3629 2.58792 21.4345 5.77738C19.883 7.49321 18.0461 9.45123 16.0534 11.5398C15.0477 12.5707 14.0341 13.6535 12.9686 14.7285C11.9031 15.8034 10.8195 16.9035 9.74451 17.995C9.20742 18.5321 8.62709 19.0786 8.12461 19.5984C7.57026 20.1488 7.10238 20.6898 6.63056 21.245C5.70486 22.3448 4.87039 23.5183 4.13545 24.7537C2.81904 26.9544 1.81021 29.3251 1.13707 31.7995C0.822529 32.891 0.64324 33.9227 0.469456 34.8317C0.417031 35.1615 0.373781 35.4737 0.339706 35.7682C0.270506 36.3056 0.218082 36.7908 0.182434 37.2238C0.130534 37.8733 0.121883 38.4198 0.0959335 38.7745C0.078634 39.089 0.0692004 39.2778 0.0692004 39.3249C0.0432507 39.0647 0.0346005 38.813 0.0259506 38.5535C0.00865068 38.1981 0 37.8513 0 37.4959C0 36.9934 0.0173009 36.4823 0.052687 35.9798C0.404223 29.4789 3.15161 23.3387 7.76449 18.7444L26.4947 0.0236206Z" fill="white"/>
</g>
</g>
<g style="mix-blend-mode:multiply" opacity="0.2">
<g style="mix-blend-mode:multiply" opacity="0.2">
<path d="M52.3397 43.4651C52.2209 43.9755 52.0936 44.4874 51.9465 44.9875C51.8427 45.3343 51.7389 45.6811 51.617 46.0278C50.7403 48.6348 49.4597 51.088 47.8221 53.2977C47.6648 53.5061 47.5075 53.7137 47.3369 53.9221C47.1796 54.121 47.016 54.3208 46.8509 54.5197C46.5136 54.9129 46.1754 55.2998 45.8113 55.6812C45.6384 55.8715 45.4559 56.0618 45.2743 56.2442H45.2656C45.1529 56.3685 45.0312 56.4844 44.9015 56.591H44.8929C40.5558 60.7691 34.924 63.344 28.9266 63.8907C22.9292 64.4373 16.9247 62.9232 11.9036 59.598C12.0169 59.6586 12.1985 59.7624 12.4234 59.8921C12.8913 60.1524 13.5849 60.4984 14.4774 60.9238C16.9407 62.0474 19.5576 62.7979 22.2419 63.1508C25.9954 63.6552 29.813 63.3629 33.4459 62.2929C35.4752 61.6878 37.4266 60.8473 39.2602 59.7883C41.0764 58.7255 42.7582 57.4483 44.2693 55.9839C44.2693 55.9839 44.2779 55.9926 44.2779 55.9839V55.9753C44.2779 55.9753 44.2866 55.9839 44.2866 55.9753C44.3471 55.9234 44.399 55.8628 44.4596 55.8109C45.425 54.881 46.3146 53.8755 47.1198 52.8039C47.6193 52.1405 48.0849 51.4524 48.5148 50.7421C49.6224 48.9344 50.507 46.9992 51.1491 44.9788C51.1647 44.9368 51.1763 44.8934 51.1837 44.8491H51.1924V44.8404C51.7643 42.9898 52.142 41.0847 52.3192 39.1559C52.4266 37.9575 52.4528 36.7532 52.3979 35.5512C52.3719 34.9536 52.3192 34.3638 52.2595 33.8008C52.0975 32.2856 51.8105 30.7864 51.4016 29.3185C51.081 28.182 50.6869 27.0675 50.222 25.982C49.806 25.0895 49.4939 24.3794 49.2344 23.9202C49.0771 23.6253 48.9654 23.4091 48.9049 23.2958C51.3302 27.098 52.7329 31.4617 52.9774 35.9648L52.9861 35.9735C53.0207 36.476 53.038 36.9871 53.038 37.4896C53.038 37.698 53.0207 37.9064 53.016 38.114C53.016 38.2594 53.0057 38.4041 53.0002 38.5496C52.9798 39.0489 52.9468 39.5467 52.898 40.0437C52.8744 40.2906 52.8485 40.5367 52.8194 40.7828C52.7863 41.0431 52.7533 41.3026 52.7132 41.5613C52.644 42.0064 52.563 42.4502 52.4702 42.8926C52.4278 43.0861 52.3837 43.2756 52.3397 43.4651Z" fill="black"/>
</g>
</g>
<defs>
<linearGradient id="paint0_linear_13_384" x1="26.5126" y1="0.782473" x2="26.5126" y2="34.9351" gradientUnits="userSpaceOnUse">
<stop stop-color="#808C46"/>
<stop offset="1" stop-color="#3A3B28"/>
</linearGradient>
<linearGradient id="paint1_linear_13_384" x1="26.516" y1="39.1739" x2="26.516" y2="63.0204" gradientUnits="userSpaceOnUse">
<stop stop-color="#808C46"/>
<stop offset="1" stop-color="#3A3B28"/>
</linearGradient>
<linearGradient id="paint2_linear_13_384" x1="26.5214" y1="18.3303" x2="26.5214" y2="47.2233" gradientUnits="userSpaceOnUse">
<stop stop-color="#808C46"/>
<stop offset="1" stop-color="#3A3B28"/>
</linearGradient>
</defs>
</svg>
